<svg width="22" height="22" viewBox="0 0 22 22" fill="none" xmlns="http://www.w3.org/2000/svg">
<path fill-rule="evenodd" clip-rule="evenodd" d="M17.4166 3.66666V18.3333H6.41659C5.40406 18.3333 4.58325 17.5125 4.58325 16.5V5.49999C4.58325 4.48747 5.40406 3.66666 6.41659 3.66666H17.4166Z" stroke="#4B465C" stroke-width="1.5" stroke-linecap="round" stroke-linejoin="round"/>
<path fill-rule="evenodd" clip-rule="evenodd" d="M17.4166 3.66666V18.3333H6.41659C5.40406 18.3333 4.58325 17.5125 4.58325 16.5V5.49999C4.58325 4.48747 5.40406 3.66666 6.41659 3.66666H17.4166Z" stroke="white" stroke-opacity="0.2" stroke-width="1.5" stroke-linecap="round" stroke-linejoin="round"/>
<path d="M17.4166 14.6667H6.41659C5.40406 14.6667 4.58325 15.4875 4.58325 16.5" stroke="#4B465C" stroke-width="1.5" stroke-linecap="round" stroke-linejoin="round"/>
<path d="M17.4166 14.6667H6.41659C5.40406 14.6667 4.58325 15.4875 4.58325 16.5" stroke="white" stroke-opacity="0.2" stroke-width="1.5" stroke-linecap="round" stroke-linejoin="round"/>
<path d="M8.25 7.33333H13.75" stroke="#4B465C" stroke-width="1.5" stroke-linecap="round" stroke-linejoin="round"/>
<path d="M8.25 7.33333H13.75" stroke="white" stroke-opacity="0.2" stroke-width="1.5" stroke-linecap="round" stroke-linejoin="round"/>
</svg>
