<svg width="22" height="22" viewBox="0 0 22 22" fill="none" xmlns="http://www.w3.org/2000/svg">
<rect x="7.33325" y="7.33337" width="11" height="11" rx="2" stroke="#4B465C" stroke-width="1.5" stroke-linecap="round" stroke-linejoin="round"/>
<rect x="7.33325" y="7.33337" width="11" height="11" rx="2" stroke="white" stroke-opacity="0.2" stroke-width="1.5" stroke-linecap="round" stroke-linejoin="round"/>
<path d="M14.6667 7.33329V5.49996C14.6667 4.48744 13.8459 3.66663 12.8334 3.66663H5.50008C4.48756 3.66663 3.66675 4.48744 3.66675 5.49996V12.8333C3.66675 13.8458 4.48756 14.6666 5.50008 14.6666H7.33341" stroke="#4B465C" stroke-width="1.5" stroke-linecap="round" stroke-linejoin="round"/>
<path d="M14.6667 7.33329V5.49996C14.6667 4.48744 13.8459 3.66663 12.8334 3.66663H5.50008C4.48756 3.66663 3.66675 4.48744 3.66675 5.49996V12.8333C3.66675 13.8458 4.48756 14.6666 5.50008 14.6666H7.33341" stroke="white" stroke-opacity="0.2" stroke-width="1.5" stroke-linecap="round" stroke-linejoin="round"/>
</svg>
