<svg width="22" height="22" viewBox="0 0 22 22" fill="none" xmlns="http://www.w3.org/2000/svg">
<path d="M12.8333 2.75V6.41667C12.8333 6.92293 13.2437 7.33333 13.7499 7.33333H17.4166" stroke="#4B465C" stroke-width="1.5" stroke-linecap="round" stroke-linejoin="round"/>
<path d="M12.8333 2.75V6.41667C12.8333 6.92293 13.2437 7.33333 13.7499 7.33333H17.4166" stroke="white" stroke-opacity="0.2" stroke-width="1.5" stroke-linecap="round" stroke-linejoin="round"/>
<path fill-rule="evenodd" clip-rule="evenodd" d="M15.5833 19.25H6.41659C5.40406 19.25 4.58325 18.4292 4.58325 17.4167V4.58333C4.58325 3.57081 5.40406 2.75 6.41659 2.75H12.8333L17.4166 7.33333V17.4167C17.4166 18.4292 16.5958 19.25 15.5833 19.25Z" stroke="#4B465C" stroke-width="1.5" stroke-linecap="round" stroke-linejoin="round"/>
<path fill-rule="evenodd" clip-rule="evenodd" d="M15.5833 19.25H6.41659C5.40406 19.25 4.58325 18.4292 4.58325 17.4167V4.58333C4.58325 3.57081 5.40406 2.75 6.41659 2.75H12.8333L17.4166 7.33333V17.4167C17.4166 18.4292 16.5958 19.25 15.5833 19.25Z" stroke="white" stroke-opacity="0.2" stroke-width="1.5" stroke-linecap="round" stroke-linejoin="round"/>
<path d="M12.8334 10.0834H10.5417C9.78236 10.0834 9.16675 10.699 9.16675 11.4584C9.16675 12.2178 9.78236 12.8334 10.5417 12.8334H11.4584C12.2178 12.8334 12.8334 13.449 12.8334 14.2084C12.8334 14.9678 12.2178 15.5834 11.4584 15.5834H9.16675" stroke="#4B465C" stroke-width="1.5" stroke-linecap="round" stroke-linejoin="round"/>
<path d="M12.8334 10.0834H10.5417C9.78236 10.0834 9.16675 10.699 9.16675 11.4584C9.16675 12.2178 9.78236 12.8334 10.5417 12.8334H11.4584C12.2178 12.8334 12.8334 13.449 12.8334 14.2084C12.8334 14.9678 12.2178 15.5834 11.4584 15.5834H9.16675" stroke="white" stroke-opacity="0.2" stroke-width="1.5" stroke-linecap="round" stroke-linejoin="round"/>
<path d="M11.7501 15.5833C11.7501 15.1691 11.4143 14.8333 11.0001 14.8333C10.5859 14.8333 10.2501 15.1691 10.2501 15.5833H11.7501ZM10.2501 16.5C10.2501 16.9142 10.5859 17.25 11.0001 17.25C11.4143 17.25 11.7501 16.9142 11.7501 16.5H10.2501ZM11.7501 9.16663C11.7501 8.75241 11.4143 8.41663 11.0001 8.41663C10.5859 8.41663 10.2501 8.75241 10.2501 9.16663H11.7501ZM10.2501 10.0833C10.2501 10.4975 10.5859 10.8333 11.0001 10.8333C11.4143 10.8333 11.7501 10.4975 11.7501 10.0833H10.2501ZM10.2501 15.5833V16.5H11.7501V15.5833H10.2501ZM10.2501 9.16663V10.0833H11.7501V9.16663H10.2501Z" fill="#4B465C"/>
<path d="M11.7501 15.5833C11.7501 15.1691 11.4143 14.8333 11.0001 14.8333C10.5859 14.8333 10.2501 15.1691 10.2501 15.5833H11.7501ZM10.2501 16.5C10.2501 16.9142 10.5859 17.25 11.0001 17.25C11.4143 17.25 11.7501 16.9142 11.7501 16.5H10.2501ZM11.7501 9.16663C11.7501 8.75241 11.4143 8.41663 11.0001 8.41663C10.5859 8.41663 10.2501 8.75241 10.2501 9.16663H11.7501ZM10.2501 10.0833C10.2501 10.4975 10.5859 10.8333 11.0001 10.8333C11.4143 10.8333 11.7501 10.4975 11.7501 10.0833H10.2501ZM10.2501 15.5833V16.5H11.7501V15.5833H10.2501ZM10.2501 9.16663V10.0833H11.7501V9.16663H10.2501Z" fill="white" fill-opacity="0.2"/>
</svg>
