<svg width="22" height="22" viewBox="0 0 22 22" fill="none" xmlns="http://www.w3.org/2000/svg">
<path d="M11 2.75C9.48122 2.75 8.25 3.98122 8.25 5.5V16.5C8.25 18.0188 9.48122 19.25 11 19.25" stroke="#4B465C" stroke-width="1.5" stroke-linecap="round" stroke-linejoin="round"/>
<path d="M11 2.75C9.48122 2.75 8.25 3.98122 8.25 5.5V16.5C8.25 18.0188 9.48122 19.25 11 19.25" stroke="white" stroke-opacity="0.2" stroke-width="1.5" stroke-linecap="round" stroke-linejoin="round"/>
<path d="M5.5 2.75C7.01878 2.75 8.25 3.98122 8.25 5.5V16.5C8.25 18.0188 7.01878 19.25 5.5 19.25" stroke="#4B465C" stroke-width="1.5" stroke-linecap="round" stroke-linejoin="round"/>
<path d="M5.5 2.75C7.01878 2.75 8.25 3.98122 8.25 5.5V16.5C8.25 18.0188 7.01878 19.25 5.5 19.25" stroke="white" stroke-opacity="0.2" stroke-width="1.5" stroke-linecap="round" stroke-linejoin="round"/>
<path d="M11.917 6.41663H18.3337C18.8399 6.41663 19.2503 6.82703 19.2503 7.33329V14.6666C19.2503 15.1729 18.8399 15.5833 18.3337 15.5833H11.917" stroke="#4B465C" stroke-width="1.5" stroke-linecap="round" stroke-linejoin="round"/>
<path d="M11.917 6.41663H18.3337C18.8399 6.41663 19.2503 6.82703 19.2503 7.33329V14.6666C19.2503 15.1729 18.8399 15.5833 18.3337 15.5833H11.917" stroke="white" stroke-opacity="0.2" stroke-width="1.5" stroke-linecap="round" stroke-linejoin="round"/>
<path d="M4.58333 6.41663H3.66667C3.16041 6.41663 2.75 6.82703 2.75 7.33329V14.6666C2.75 15.1729 3.16041 15.5833 3.66667 15.5833H4.58333" stroke="#4B465C" stroke-width="1.5" stroke-linecap="round" stroke-linejoin="round"/>
<path d="M4.58333 6.41663H3.66667C3.16041 6.41663 2.75 6.82703 2.75 7.33329V14.6666C2.75 15.1729 3.16041 15.5833 3.66667 15.5833H4.58333" stroke="white" stroke-opacity="0.2" stroke-width="1.5" stroke-linecap="round" stroke-linejoin="round"/>
<path d="M15.5836 11H15.5928" stroke="#4B465C" stroke-width="1.5" stroke-linecap="round" stroke-linejoin="round"/>
<path d="M15.5836 11H15.5928" stroke="white" stroke-opacity="0.2" stroke-width="1.5" stroke-linecap="round" stroke-linejoin="round"/>
<path d="M11.9166 11H11.9258" stroke="#4B465C" stroke-width="1.5" stroke-linecap="round" stroke-linejoin="round"/>
<path d="M11.9166 11H11.9258" stroke="white" stroke-opacity="0.2" stroke-width="1.5" stroke-linecap="round" stroke-linejoin="round"/>
</svg>
