<svg width="22" height="22" viewBox="0 0 22 22" fill="none" xmlns="http://www.w3.org/2000/svg">
<ellipse cx="6.41658" cy="15.5833" rx="1.83333" ry="1.83333" stroke="#4B465C" stroke-width="1.5" stroke-linecap="round" stroke-linejoin="round"/>
<ellipse cx="6.41658" cy="15.5833" rx="1.83333" ry="1.83333" stroke="white" stroke-opacity="0.2" stroke-width="1.5" stroke-linecap="round" stroke-linejoin="round"/>
<circle cx="15.5833" cy="15.5833" r="1.83333" stroke="#4B465C" stroke-width="1.5" stroke-linecap="round" stroke-linejoin="round"/>
<circle cx="15.5833" cy="15.5833" r="1.83333" stroke="white" stroke-opacity="0.2" stroke-width="1.5" stroke-linecap="round" stroke-linejoin="round"/>
<path d="M4.58333 16.3333C4.99755 16.3333 5.33333 15.9975 5.33333 15.5833C5.33333 15.1691 4.99755 14.8333 4.58333 14.8333V16.3333ZM2.75 15.5833H2C2 15.9975 2.33579 16.3333 2.75 16.3333V15.5833ZM11.9167 4.58331H12.6667C12.6667 4.1691 12.3309 3.83331 11.9167 3.83331V4.58331ZM11.1667 15.5833C11.1667 15.9975 11.5025 16.3333 11.9167 16.3333C12.3309 16.3333 12.6667 15.9975 12.6667 15.5833H11.1667ZM8.25 14.8333C7.83579 14.8333 7.5 15.1691 7.5 15.5833C7.5 15.9975 7.83579 16.3333 8.25 16.3333V14.8333ZM13.75 16.3333C14.1642 16.3333 14.5 15.9975 14.5 15.5833C14.5 15.1691 14.1642 14.8333 13.75 14.8333V16.3333ZM17.4167 14.8333C17.0025 14.8333 16.6667 15.1691 16.6667 15.5833C16.6667 15.9975 17.0025 16.3333 17.4167 16.3333V14.8333ZM19.25 15.5833V16.3333C19.6642 16.3333 20 15.9975 20 15.5833H19.25ZM19.25 10.0833H20C20 9.6691 19.6642 9.33331 19.25 9.33331V10.0833ZM11.9167 9.33331C11.5025 9.33331 11.1667 9.6691 11.1667 10.0833C11.1667 10.4975 11.5025 10.8333 11.9167 10.8333V9.33331ZM11.9167 4.74998C11.5025 4.74998 11.1667 5.08577 11.1667 5.49998C11.1667 5.91419 11.5025 6.24998 11.9167 6.24998V4.74998ZM16.5 5.49998L17.1431 5.11411C17.0076 4.8882 16.7634 4.74998 16.5 4.74998V5.49998ZM18.6069 10.4692C18.82 10.8244 19.2807 10.9395 19.6359 10.7264C19.9911 10.5133 20.1062 10.0526 19.8931 9.69744L18.6069 10.4692ZM4.58333 14.8333H2.75V16.3333H4.58333V14.8333ZM3.5 15.5833V5.49998H2V15.5833H3.5ZM3.5 5.49998C3.5 5.40793 3.57462 5.33331 3.66667 5.33331V3.83331C2.74619 3.83331 2 4.57951 2 5.49998H3.5ZM3.66667 5.33331H11.9167V3.83331H3.66667V5.33331ZM11.1667 4.58331V15.5833H12.6667V4.58331H11.1667ZM8.25 16.3333H13.75V14.8333H8.25V16.3333ZM17.4167 16.3333H19.25V14.8333H17.4167V16.3333ZM20 15.5833V10.0833H18.5V15.5833H20ZM19.25 9.33331H11.9167V10.8333H19.25V9.33331ZM11.9167 6.24998H16.5V4.74998H11.9167V6.24998ZM15.8569 5.88585L18.6069 10.4692L19.8931 9.69744L17.1431 5.11411L15.8569 5.88585Z" fill="#4B465C"/>
<path d="M4.58333 16.3333C4.99755 16.3333 5.33333 15.9975 5.33333 15.5833C5.33333 15.1691 4.99755 14.8333 4.58333 14.8333V16.3333ZM2.75 15.5833H2C2 15.9975 2.33579 16.3333 2.75 16.3333V15.5833ZM11.9167 4.58331H12.6667C12.6667 4.1691 12.3309 3.83331 11.9167 3.83331V4.58331ZM11.1667 15.5833C11.1667 15.9975 11.5025 16.3333 11.9167 16.3333C12.3309 16.3333 12.6667 15.9975 12.6667 15.5833H11.1667ZM8.25 14.8333C7.83579 14.8333 7.5 15.1691 7.5 15.5833C7.5 15.9975 7.83579 16.3333 8.25 16.3333V14.8333ZM13.75 16.3333C14.1642 16.3333 14.5 15.9975 14.5 15.5833C14.5 15.1691 14.1642 14.8333 13.75 14.8333V16.3333ZM17.4167 14.8333C17.0025 14.8333 16.6667 15.1691 16.6667 15.5833C16.6667 15.9975 17.0025 16.3333 17.4167 16.3333V14.8333ZM19.25 15.5833V16.3333C19.6642 16.3333 20 15.9975 20 15.5833H19.25ZM19.25 10.0833H20C20 9.6691 19.6642 9.33331 19.25 9.33331V10.0833ZM11.9167 9.33331C11.5025 9.33331 11.1667 9.6691 11.1667 10.0833C11.1667 10.4975 11.5025 10.8333 11.9167 10.8333V9.33331ZM11.9167 4.74998C11.5025 4.74998 11.1667 5.08577 11.1667 5.49998C11.1667 5.91419 11.5025 6.24998 11.9167 6.24998V4.74998ZM16.5 5.49998L17.1431 5.11411C17.0076 4.8882 16.7634 4.74998 16.5 4.74998V5.49998ZM18.6069 10.4692C18.82 10.8244 19.2807 10.9395 19.6359 10.7264C19.9911 10.5133 20.1062 10.0526 19.8931 9.69744L18.6069 10.4692ZM4.58333 14.8333H2.75V16.3333H4.58333V14.8333ZM3.5 15.5833V5.49998H2V15.5833H3.5ZM3.5 5.49998C3.5 5.40793 3.57462 5.33331 3.66667 5.33331V3.83331C2.74619 3.83331 2 4.57951 2 5.49998H3.5ZM3.66667 5.33331H11.9167V3.83331H3.66667V5.33331ZM11.1667 4.58331V15.5833H12.6667V4.58331H11.1667ZM8.25 16.3333H13.75V14.8333H8.25V16.3333ZM17.4167 16.3333H19.25V14.8333H17.4167V16.3333ZM20 15.5833V10.0833H18.5V15.5833H20ZM19.25 9.33331H11.9167V10.8333H19.25V9.33331ZM11.9167 6.24998H16.5V4.74998H11.9167V6.24998ZM15.8569 5.88585L18.6069 10.4692L19.8931 9.69744L17.1431 5.11411L15.8569 5.88585Z" fill="white" fill-opacity="0.2"/>
</svg>
