<svg width="17" height="17" viewBox="0 0 17 17" fill="none" xmlns="http://www.w3.org/2000/svg">
<path d="M16.1883 7.18861C13.6789 7.18737 11.1694 7.18799 8.66 7.18828C8.66033 8.22912 8.65877 9.26996 8.66062 10.3105C10.1139 10.3102 11.5672 10.3099 13.0202 10.3105C12.8518 11.3079 12.259 12.22 11.4185 12.7815C10.8901 13.1368 10.283 13.3674 9.65707 13.477C9.02715 13.5845 8.37626 13.5983 7.7479 13.4711C7.10891 13.3436 6.49895 13.0774 5.96684 12.7021C5.116 12.1043 4.46667 11.2297 4.13327 10.2454C3.79236 9.24431 3.78986 8.13034 4.13483 7.13014C4.37419 6.42521 4.77259 5.77402 5.29595 5.24409C5.94151 4.58321 6.78081 4.11077 7.68508 3.91703C8.45937 3.75175 9.27585 3.78329 10.0339 4.01263C10.6782 4.20826 11.2722 4.56133 11.7588 5.02596C12.2506 4.53694 12.7399 4.04512 13.2308 3.55518C13.4883 3.29147 13.7589 3.0393 14.0082 2.7684C13.2627 2.07845 12.3887 1.52384 11.4338 1.17324C9.71457 0.540525 7.7757 0.527096 6.04495 1.12613C4.09451 1.79386 2.43373 3.25245 1.51291 5.09604C1.19233 5.73129 0.958268 6.40934 0.817664 7.10676C0.463944 8.84438 0.710488 10.697 1.51197 12.2797C2.03286 13.3127 2.77965 14.231 3.68551 14.951C4.54012 15.6325 5.53625 16.1358 6.5924 16.4168C7.92509 16.7742 9.34367 16.7661 10.6851 16.4608C11.8975 16.1818 13.0446 15.6025 13.9604 14.7569C14.9285 13.8673 15.619 12.6952 15.9846 11.4357C16.3833 10.0618 16.4383 8.59504 16.1883 7.18861Z" fill="#DB4437"/>
</svg>
