<svg width="21" height="17" viewBox="0 0 21 17" fill="none" xmlns="http://www.w3.org/2000/svg">
<path d="M20.3447 2.58149C19.6209 2.90322 18.842 3.12023 18.0247 3.21735C18.8592 2.71777 19.499 1.92645 19.8008 0.982449C19.0202 1.44566 18.1562 1.78177 17.2358 1.96322C16.4992 1.17828 15.4493 0.6875 14.2875 0.6875C12.057 0.6875 10.2485 2.49596 10.2485 4.72687C10.2485 5.043 10.2841 5.35114 10.3532 5.64728C6.99606 5.47863 4.01939 3.87079 2.02708 1.42687C1.67938 2.02316 1.48035 2.71697 1.48035 3.45794C1.48035 4.85915 2.19334 6.0957 3.27722 6.81989C2.61538 6.79871 1.99231 6.61686 1.44758 6.31432C1.44718 6.3311 1.44718 6.34829 1.44718 6.36547C1.44718 8.32221 2.83959 9.95442 4.68762 10.3261C4.34871 10.418 3.99181 10.4676 3.62333 10.4676C3.36275 10.4676 3.10976 10.4424 2.86317 10.3948C3.37754 11.9995 4.86907 13.1677 6.63637 13.2001C5.25394 14.2835 3.51262 14.9294 1.61983 14.9294C1.29411 14.9294 0.972381 14.9102 0.65625 14.8726C2.44433 16.0193 4.56732 16.6875 6.84819 16.6875C14.2783 16.6875 18.3408 10.5327 18.3408 5.19487C18.3408 5.01982 18.3372 4.84517 18.3296 4.67171C19.1186 4.1034 19.8036 3.3916 20.3447 2.58149Z" fill="#1DA1F2"/>
</svg>
